<?xml version="1.0" encoding="utf-8" standalone="no"?>
<!DOCTYPE svg PUBLIC "-//W3C//DTD SVG 1.1//EN"
  "http://www.w3.org/Graphics/SVG/1.1/DTD/svg11.dtd">
<svg xmlns:xlink="http://www.w3.org/1999/xlink" width="504pt" height="144pt" viewBox="0 0 504 144" xmlns="http://www.w3.org/2000/svg" version="1.1">
 <metadata>
  <rdf:RDF xmlns:dc="http://purl.org/dc/elements/1.1/" xmlns:cc="http://creativecommons.org/ns#" xmlns:rdf="http://www.w3.org/1999/02/22-rdf-syntax-ns#">
   <cc:Work>
    <dc:type rdf:resource="http://purl.org/dc/dcmitype/StillImage"/>
    <dc:date>2023-01-17T10:36:24.409940</dc:date>
    <dc:format>image/svg+xml</dc:format>
    <dc:creator>
     <cc:Agent>
      <dc:title>Matplotlib v3.6.3, https://matplotlib.org/</dc:title>
     </cc:Agent>
    </dc:creator>
   </cc:Work>
  </rdf:RDF>
 </metadata>
 <defs>
  <style type="text/css">*{stroke-linejoin: round; stroke-linecap: butt}</style>
 </defs>
 <g id="figure_1">
  <g id="patch_1">
   <path d="M 0 144 
L 504 144 
L 504 0 
L 0 0 
z
" style="fill: #ffffff"/>
  </g>
  <g id="axes_1">
   <g id="patch_2">
    <path d="M 196.786167 88.265552 
L 127.299697 114.322979 
L 125.603283 114.861747 
L 123.860643 115.2241 
L 122.090072 115.406232 
L 120.310158 115.406232 
L 118.539587 115.2241 
L 116.796948 114.861747 
L 115.100533 114.322979 
L 45.614063 88.265552 
L 44.068043 87.598649 
L 42.593847 86.785208 
L 41.205325 85.83287 
L 39.915521 84.750583 
L 38.736552 83.548513 
L 37.679494 82.237953 
L 36.754276 80.831215 
L 35.96959 79.341514 
L 35.332809 77.782845 
L 34.849914 76.169851 
L 34.525441 74.517683 
L 34.362439 72.841864 
L 34.362439 71.158136 
L 34.525441 69.482317 
L 34.849914 67.830149 
L 35.332809 66.217155 
L 35.96959 64.658486 
L 36.754276 63.168785 
L 37.679494 61.762047 
L 38.736552 60.451487 
L 39.915521 59.249417 
L 41.205325 58.16713 
L 42.593847 57.214792 
L 44.068043 56.401351 
L 45.614063 55.734448 
L 115.100533 29.677021 
L 116.796948 29.138253 
L 118.539587 28.7759 
L 120.310158 28.593768 
L 122.090072 28.593768 
L 123.860643 28.7759 
L 125.603283 29.138253 
L 127.299697 29.677021 
L 196.786167 55.734448 
L 198.332188 56.401351 
L 199.806384 57.214792 
L 201.194906 58.16713 
L 202.484709 59.249417 
L 203.663678 60.451487 
L 204.720737 61.762047 
L 205.645955 63.168785 
L 206.43064 64.658486 
L 207.067422 66.217155 
L 207.550317 67.830149 
L 207.87479 69.482317 
L 208.037792 71.158136 
L 208.037792 72.841864 
L 207.87479 74.517683 
L 207.550317 76.169851 
L 207.067422 77.782845 
L 206.43064 79.341514 
L 205.645955 80.831215 
L 204.720737 82.237953 
L 203.663678 83.548513 
L 202.484709 84.750583 
L 201.194906 85.83287 
L 199.806384 86.785208 
L 198.332188 87.598649 
z
" clip-path="url(#p93e150b60d)" style="fill: #1f77b4; opacity: 0.5"/>
   </g>
   <g id="patch_3">
    <path d="M 179.989267 84.650985 
L 125.944235 104.917872 
L 124.624801 105.336915 
L 123.269415 105.618744 
L 121.892304 105.760403 
L 120.507927 105.760403 
L 119.130816 105.618744 
L 117.775429 105.336915 
L 116.455996 104.917872 
L 62.410964 84.650985 
L 61.208503 84.132283 
L 60.061906 83.499606 
L 58.981945 82.758899 
L 57.978764 81.91712 
L 57.061788 80.982177 
L 56.239632 79.962852 
L 55.520018 78.868723 
L 54.909707 77.710067 
L 54.414433 76.497769 
L 54.038847 75.243217 
L 53.78648 73.958198 
L 53.6597 72.654783 
L 53.6597 71.345217 
L 53.78648 70.041802 
L 54.038847 68.756783 
L 54.414433 67.502231 
L 54.909707 66.289933 
L 55.520018 65.131277 
L 56.239632 64.037148 
L 57.061788 63.017823 
L 57.978764 62.08288 
L 58.981945 61.241101 
L 60.061906 60.500394 
L 61.208503 59.867717 
L 62.410964 59.349015 
L 116.455996 39.082128 
L 117.775429 38.663085 
L 119.130816 38.381256 
L 120.507927 38.239597 
L 121.892304 38.239597 
L 123.269415 38.381256 
L 124.624801 38.663085 
L 125.944235 39.082128 
L 179.989267 59.349015 
L 181.191727 59.867717 
L 182.338324 60.500394 
L 183.418286 61.241101 
L 184.421466 62.08288 
L 185.338442 63.017823 
L 186.160599 64.037148 
L 186.880213 65.131277 
L 187.490524 66.289933 
L 187.985798 67.502231 
L 188.361383 68.756783 
L 188.613751 70.041802 
L 188.74053 71.345217 
L 188.74053 72.654783 
L 188.613751 73.958198 
L 188.361383 75.243217 
L 187.985798 76.497769 
L 187.490524 77.710067 
L 186.880213 78.868723 
L 186.160599 79.962852 
L 185.338442 80.982177 
L 184.421466 81.91712 
L 183.418286 82.758899 
L 182.338324 83.499606 
L 181.191727 84.132283 
z
" clip-path="url(#p93e150b60d)" style="fill: #ffffff; stroke: #ffffff; stroke-linejoin: miter"/>
   </g>
   <g id="patch_4">
    <path d="M 179.989267 84.650985 
L 125.944235 104.917872 
L 124.624801 105.336915 
L 123.269415 105.618744 
L 121.892304 105.760403 
L 120.507927 105.760403 
L 119.130816 105.618744 
L 117.775429 105.336915 
L 116.455996 104.917872 
L 62.410964 84.650985 
L 61.208503 84.132283 
L 60.061906 83.499606 
L 58.981945 82.758899 
L 57.978764 81.91712 
L 57.061788 80.982177 
L 56.239632 79.962852 
L 55.520018 78.868723 
L 54.909707 77.710067 
L 54.414433 76.497769 
L 54.038847 75.243217 
L 53.78648 73.958198 
L 53.6597 72.654783 
L 53.6597 71.345217 
L 53.78648 70.041802 
L 54.038847 68.756783 
L 54.414433 67.502231 
L 54.909707 66.289933 
L 55.520018 65.131277 
L 56.239632 64.037148 
L 57.061788 63.017823 
L 57.978764 62.08288 
L 58.981945 61.241101 
L 60.061906 60.500394 
L 61.208503 59.867717 
L 62.410964 59.349015 
L 116.455996 39.082128 
L 117.775429 38.663085 
L 119.130816 38.381256 
L 120.507927 38.239597 
L 121.892304 38.239597 
L 123.269415 38.381256 
L 124.624801 38.663085 
L 125.944235 39.082128 
L 179.989267 59.349015 
L 181.191727 59.867717 
L 182.338324 60.500394 
L 183.418286 61.241101 
L 184.421466 62.08288 
L 185.338442 63.017823 
L 186.160599 64.037148 
L 186.880213 65.131277 
L 187.490524 66.289933 
L 187.985798 67.502231 
L 188.361383 68.756783 
L 188.613751 70.041802 
L 188.74053 71.345217 
L 188.74053 72.654783 
L 188.613751 73.958198 
L 188.361383 75.243217 
L 187.985798 76.497769 
L 187.490524 77.710067 
L 186.880213 78.868723 
L 186.160599 79.962852 
L 185.338442 80.982177 
L 184.421466 81.91712 
L 183.418286 82.758899 
L 182.338324 83.499606 
L 181.191727 84.132283 
z
" clip-path="url(#p93e150b60d)" style="fill: #ff7f0e; opacity: 0.5"/>
   </g>
   <g id="patch_5">
    <path d="M 163.192367 81.036418 
L 124.588772 95.512766 
L 123.64632 95.812082 
L 122.678186 96.013389 
L 121.694536 96.114574 
L 120.705695 96.114574 
L 119.722044 96.013389 
L 118.753911 95.812082 
L 117.811459 95.512766 
L 79.207864 81.036418 
L 78.348964 80.665916 
L 77.529966 80.214004 
L 76.758565 79.684928 
L 76.042007 79.083657 
L 75.387025 78.415841 
L 74.79977 77.687752 
L 74.28576 76.906231 
L 73.849824 76.078619 
L 73.496056 75.212692 
L 73.227781 74.316584 
L 73.047518 73.398713 
L 72.956962 72.467702 
L 72.956962 71.532298 
L 73.047518 70.601287 
L 73.227781 69.683416 
L 73.496056 68.787308 
L 73.849824 67.921381 
L 74.28576 67.093769 
L 74.79977 66.312248 
L 75.387025 65.584159 
L 76.042007 64.916343 
L 76.758565 64.315072 
L 77.529966 63.785996 
L 78.348964 63.334084 
L 79.207864 62.963582 
L 117.811459 48.487234 
L 118.753911 48.187918 
L 119.722044 47.986611 
L 120.705695 47.885426 
L 121.694536 47.885426 
L 122.678186 47.986611 
L 123.64632 48.187918 
L 124.588772 48.487234 
L 163.192367 62.963582 
L 164.051267 63.334084 
L 164.870265 63.785996 
L 165.641666 64.315072 
L 166.358223 64.916343 
L 167.013206 65.584159 
L 167.600461 66.312248 
L 168.114471 67.093769 
L 168.550407 67.921381 
L 168.904174 68.787308 
L 169.17245 69.683416 
L 169.352712 70.601287 
L 169.443269 71.532298 
L 169.443269 72.467702 
L 169.352712 73.398713 
L 169.17245 74.316584 
L 168.904174 75.212692 
L 168.550407 76.078619 
L 168.114471 76.906231 
L 167.600461 77.687752 
L 167.013206 78.415841 
L 166.358223 79.083657 
L 165.641666 79.684928 
L 164.870265 80.214004 
L 164.051267 80.665916 
z
" clip-path="url(#p93e150b60d)" style="fill: #ffffff; stroke: #ffffff; stroke-linejoin: miter"/>
   </g>
   <g id="patch_6">
    <path d="M 163.192367 81.036418 
L 124.588772 95.512766 
L 123.64632 95.812082 
L 122.678186 96.013389 
L 121.694536 96.114574 
L 120.705695 96.114574 
L 119.722044 96.013389 
L 118.753911 95.812082 
L 117.811459 95.512766 
L 79.207864 81.036418 
L 78.348964 80.665916 
L 77.529966 80.214004 
L 76.758565 79.684928 
L 76.042007 79.083657 
L 75.387025 78.415841 
L 74.79977 77.687752 
L 74.28576 76.906231 
L 73.849824 76.078619 
L 73.496056 75.212692 
L 73.227781 74.316584 
L 73.047518 73.398713 
L 72.956962 72.467702 
L 72.956962 71.532298 
L 73.047518 70.601287 
L 73.227781 69.683416 
L 73.496056 68.787308 
L 73.849824 67.921381 
L 74.28576 67.093769 
L 74.79977 66.312248 
L 75.387025 65.584159 
L 76.042007 64.916343 
L 76.758565 64.315072 
L 77.529966 63.785996 
L 78.348964 63.334084 
L 79.207864 62.963582 
L 117.811459 48.487234 
L 118.753911 48.187918 
L 119.722044 47.986611 
L 120.705695 47.885426 
L 121.694536 47.885426 
L 122.678186 47.986611 
L 123.64632 48.187918 
L 124.588772 48.487234 
L 163.192367 62.963582 
L 164.051267 63.334084 
L 164.870265 63.785996 
L 165.641666 64.315072 
L 166.358223 64.916343 
L 167.013206 65.584159 
L 167.600461 66.312248 
L 168.114471 67.093769 
L 168.550407 67.921381 
L 168.904174 68.787308 
L 169.17245 69.683416 
L 169.352712 70.601287 
L 169.443269 71.532298 
L 169.443269 72.467702 
L 169.352712 73.398713 
L 169.17245 74.316584 
L 168.904174 75.212692 
L 168.550407 76.078619 
L 168.114471 76.906231 
L 167.600461 77.687752 
L 167.013206 78.415841 
L 166.358223 79.083657 
L 165.641666 79.684928 
L 164.870265 80.214004 
L 164.051267 80.665916 
z
" clip-path="url(#p93e150b60d)" style="fill: #2ca02c; opacity: 0.5"/>
   </g>
   <g id="patch_7">
    <path d="M 146.395466 77.421851 
L 123.233309 86.10766 
L 122.667838 86.287249 
L 122.086958 86.408033 
L 121.496768 86.468744 
L 120.903463 86.468744 
L 120.313273 86.408033 
L 119.732393 86.287249 
L 119.166921 86.10766 
L 96.004765 77.421851 
L 95.489424 77.19955 
L 94.998026 76.928403 
L 94.535185 76.610957 
L 94.105251 76.250194 
L 93.712261 75.849504 
L 93.359908 75.412651 
L 93.051502 74.943738 
L 92.78994 74.447171 
L 92.57768 73.927615 
L 92.416715 73.38995 
L 92.308557 72.839228 
L 92.254223 72.280621 
L 92.254223 71.719379 
L 92.308557 71.160772 
L 92.416715 70.61005 
L 92.57768 70.072385 
L 92.78994 69.552829 
L 93.051502 69.056262 
L 93.359908 68.587349 
L 93.712261 68.150496 
L 94.105251 67.749806 
L 94.535185 67.389043 
L 94.998026 67.071597 
L 95.489424 66.80045 
L 96.004765 66.578149 
L 119.166921 57.89234 
L 119.732393 57.712751 
L 120.313273 57.591967 
L 120.903463 57.531256 
L 121.496768 57.531256 
L 122.086958 57.591967 
L 122.667838 57.712751 
L 123.233309 57.89234 
L 146.395466 66.578149 
L 146.910806 66.80045 
L 147.402205 67.071597 
L 147.865045 67.389043 
L 148.29498 67.749806 
L 148.68797 68.150496 
L 149.040323 68.587349 
L 149.348728 69.056262 
L 149.61029 69.552829 
L 149.822551 70.072385 
L 149.983516 70.61005 
L 150.091673 71.160772 
L 150.146007 71.719379 
L 150.146007 72.280621 
L 150.091673 72.839228 
L 149.983516 73.38995 
L 149.822551 73.927615 
L 149.61029 74.447171 
L 149.348728 74.943738 
L 149.040323 75.412651 
L 148.68797 75.849504 
L 148.29498 76.250194 
L 147.865045 76.610957 
L 147.402205 76.928403 
L 146.910806 77.19955 
z
" clip-path="url(#p93e150b60d)" style="fill: #ffffff; stroke: #ffffff; stroke-linejoin: miter"/>
   </g>
   <g id="patch_8">
    <path d="M 146.395466 77.421851 
L 123.233309 86.10766 
L 122.667838 86.287249 
L 122.086958 86.408033 
L 121.496768 86.468744 
L 120.903463 86.468744 
L 120.313273 86.408033 
L 119.732393 86.287249 
L 119.166921 86.10766 
L 96.004765 77.421851 
L 95.489424 77.19955 
L 94.998026 76.928403 
L 94.535185 76.610957 
L 94.105251 76.250194 
L 93.712261 75.849504 
L 93.359908 75.412651 
L 93.051502 74.943738 
L 92.78994 74.447171 
L 92.57768 73.927615 
L 92.416715 73.38995 
L 92.308557 72.839228 
L 92.254223 72.280621 
L 92.254223 71.719379 
L 92.308557 71.160772 
L 92.416715 70.61005 
L 92.57768 70.072385 
L 92.78994 69.552829 
L 93.051502 69.056262 
L 93.359908 68.587349 
L 93.712261 68.150496 
L 94.105251 67.749806 
L 94.535185 67.389043 
L 94.998026 67.071597 
L 95.489424 66.80045 
L 96.004765 66.578149 
L 119.166921 57.89234 
L 119.732393 57.712751 
L 120.313273 57.591967 
L 120.903463 57.531256 
L 121.496768 57.531256 
L 122.086958 57.591967 
L 122.667838 57.712751 
L 123.233309 57.89234 
L 146.395466 66.578149 
L 146.910806 66.80045 
L 147.402205 67.071597 
L 147.865045 67.389043 
L 148.29498 67.749806 
L 148.68797 68.150496 
L 149.040323 68.587349 
L 149.348728 69.056262 
L 149.61029 69.552829 
L 149.822551 70.072385 
L 149.983516 70.61005 
L 150.091673 71.160772 
L 150.146007 71.719379 
L 150.146007 72.280621 
L 150.091673 72.839228 
L 149.983516 73.38995 
L 149.822551 73.927615 
L 149.61029 74.447171 
L 149.348728 74.943738 
L 149.040323 75.412651 
L 148.68797 75.849504 
L 148.29498 76.250194 
L 147.865045 76.610957 
L 147.402205 76.928403 
L 146.910806 77.19955 
z
" clip-path="url(#p93e150b60d)" style="fill: #d62728; opacity: 0.5"/>
   </g>
   <g id="patch_9">
    <path d="M 129.598566 73.807284 
L 121.877847 76.702553 
L 121.689356 76.762416 
L 121.49573 76.802678 
L 121.298999 76.822915 
L 121.101231 76.822915 
L 120.904501 76.802678 
L 120.710874 76.762416 
L 120.522384 76.702553 
L 112.801665 73.807284 
L 112.629885 73.733183 
L 112.466085 73.642801 
L 112.311805 73.536986 
L 112.168494 73.416731 
L 112.037497 73.283168 
L 111.920046 73.13755 
L 111.817244 72.981246 
L 111.730057 72.815724 
L 111.659304 72.642538 
L 111.605648 72.463317 
L 111.569596 72.279743 
L 111.551485 72.09354 
L 111.551485 71.90646 
L 111.569596 71.720257 
L 111.605648 71.536683 
L 111.659304 71.357462 
L 111.730057 71.184276 
L 111.817244 71.018754 
L 111.920046 70.86245 
L 112.037497 70.716832 
L 112.168494 70.583269 
L 112.311805 70.463014 
L 112.466085 70.357199 
L 112.629885 70.266817 
L 112.801665 70.192716 
L 120.522384 67.297447 
L 120.710874 67.237584 
L 120.904501 67.197322 
L 121.101231 67.177085 
L 121.298999 67.177085 
L 121.49573 67.197322 
L 121.689356 67.237584 
L 121.877847 67.297447 
L 129.598566 70.192716 
L 129.770346 70.266817 
L 129.934145 70.357199 
L 130.088425 70.463014 
L 130.231737 70.583269 
L 130.362733 70.716832 
L 130.480184 70.86245 
L 130.582986 71.018754 
L 130.670174 71.184276 
L 130.740927 71.357462 
L 130.794582 71.536683 
L 130.830635 71.720257 
L 130.848746 71.90646 
L 130.848746 72.09354 
L 130.830635 72.279743 
L 130.794582 72.463317 
L 130.740927 72.642538 
L 130.670174 72.815724 
L 130.582986 72.981246 
L 130.480184 73.13755 
L 130.362733 73.283168 
L 130.231737 73.416731 
L 130.088425 73.536986 
L 129.934145 73.642801 
L 129.770346 73.733183 
z
" clip-path="url(#p93e150b60d)" style="fill: #ffffff; stroke: #ffffff; stroke-linejoin: miter"/>
   </g>
   <g id="patch_10">
    <path d="M 129.598566 73.807284 
L 121.877847 76.702553 
L 121.689356 76.762416 
L 121.49573 76.802678 
L 121.298999 76.822915 
L 121.101231 76.822915 
L 120.904501 76.802678 
L 120.710874 76.762416 
L 120.522384 76.702553 
L 112.801665 73.807284 
L 112.629885 73.733183 
L 112.466085 73.642801 
L 112.311805 73.536986 
L 112.168494 73.416731 
L 112.037497 73.283168 
L 111.920046 73.13755 
L 111.817244 72.981246 
L 111.730057 72.815724 
L 111.659304 72.642538 
L 111.605648 72.463317 
L 111.569596 72.279743 
L 111.551485 72.09354 
L 111.551485 71.90646 
L 111.569596 71.720257 
L 111.605648 71.536683 
L 111.659304 71.357462 
L 111.730057 71.184276 
L 111.817244 71.018754 
L 111.920046 70.86245 
L 112.037497 70.716832 
L 112.168494 70.583269 
L 112.311805 70.463014 
L 112.466085 70.357199 
L 112.629885 70.266817 
L 112.801665 70.192716 
L 120.522384 67.297447 
L 120.710874 67.237584 
L 120.904501 67.197322 
L 121.101231 67.177085 
L 121.298999 67.177085 
L 121.49573 67.197322 
L 121.689356 67.237584 
L 121.877847 67.297447 
L 129.598566 70.192716 
L 129.770346 70.266817 
L 129.934145 70.357199 
L 130.088425 70.463014 
L 130.231737 70.583269 
L 130.362733 70.716832 
L 130.480184 70.86245 
L 130.582986 71.018754 
L 130.670174 71.184276 
L 130.740927 71.357462 
L 130.794582 71.536683 
L 130.830635 71.720257 
L 130.848746 71.90646 
L 130.848746 72.09354 
L 130.830635 72.279743 
L 130.794582 72.463317 
L 130.740927 72.642538 
L 130.670174 72.815724 
L 130.582986 72.981246 
L 130.480184 73.13755 
L 130.362733 73.283168 
L 130.231737 73.416731 
L 130.088425 73.536986 
L 129.934145 73.642801 
L 129.770346 73.733183 
z
" clip-path="url(#p93e150b60d)" style="fill: #9467bd; opacity: 0.5"/>
   </g>
   <g id="line2d_1">
    <path d="M 196.786167 88.265552 
L 127.299697 114.322979 
L 125.603283 114.861747 
L 123.860643 115.2241 
L 122.090072 115.406232 
L 120.310158 115.406232 
L 118.539587 115.2241 
L 116.796948 114.861747 
L 115.100533 114.322979 
L 45.614063 88.265552 
L 44.068043 87.598649 
L 42.593847 86.785208 
L 41.205325 85.83287 
L 39.915521 84.750583 
L 38.736552 83.548513 
L 37.679494 82.237953 
L 36.754276 80.831215 
L 35.96959 79.341514 
L 35.332809 77.782845 
L 34.849914 76.169851 
L 34.525441 74.517683 
L 34.362439 72.841864 
L 34.362439 71.158136 
L 34.525441 69.482317 
L 34.849914 67.830149 
L 35.332809 66.217155 
L 35.96959 64.658486 
L 36.754276 63.168785 
L 37.679494 61.762047 
L 38.736552 60.451487 
L 39.915521 59.249417 
L 41.205325 58.16713 
L 42.593847 57.214792 
L 44.068043 56.401351 
L 45.614063 55.734448 
L 115.100533 29.677021 
L 116.796948 29.138253 
L 118.539587 28.7759 
L 120.310158 28.593768 
L 122.090072 28.593768 
L 123.860643 28.7759 
L 125.603283 29.138253 
L 127.299697 29.677021 
L 196.786167 55.734448 
L 198.332188 56.401351 
L 199.806384 57.214792 
L 201.194906 58.16713 
L 202.484709 59.249417 
L 203.663678 60.451487 
L 204.720737 61.762047 
L 205.645955 63.168785 
L 206.43064 64.658486 
L 207.067422 66.217155 
L 207.550317 67.830149 
L 207.87479 69.482317 
L 208.037792 71.158136 
L 208.037792 72.841864 
L 207.87479 74.517683 
L 207.550317 76.169851 
L 207.067422 77.782845 
L 206.43064 79.341514 
L 205.645955 80.831215 
L 204.720737 82.237953 
L 203.663678 83.548513 
L 202.484709 84.750583 
L 201.194906 85.83287 
L 199.806384 86.785208 
L 198.332188 87.598649 
L 196.786167 88.265552 
" clip-path="url(#p93e150b60d)" style="fill: none; stroke: #000000; stroke-width: 1.5; stroke-linecap: square"/>
   </g>
  </g>
  <g id="axes_2">
   <g id="patch_11">
    <path d="M 304.788874 72 
L 296.971646 74.605743 
L 296.971646 72.868581 
L 279.600029 72.868581 
L 279.600029 71.131419 
L 296.971646 71.131419 
L 296.971646 69.394257 
z
" clip-path="url(#pd795d806bd)" style="stroke: #000000; stroke-linejoin: miter"/>
   </g>
   <g id="patch_12">
    <path d="M 254.411183 72 
L 262.228411 69.394257 
L 262.228411 71.131419 
L 279.600029 71.131419 
L 279.600029 72.868581 
L 262.228411 72.868581 
L 262.228411 74.605743 
z
" clip-path="url(#pd795d806bd)" style="stroke: #000000; stroke-linejoin: miter"/>
   </g>
  </g>
  <g id="axes_3">
   <g id="patch_13">
    <path d="M 466.036277 72 
L 465.768373 77.453317 
L 464.96724 82.854116 
L 463.640594 88.150384 
L 461.801211 93.291115 
L 459.466806 98.2268 
L 456.659859 102.909908 
L 453.407404 107.295335 
L 449.740764 111.34085 
L 445.695249 115.007491 
L 441.309821 118.259946 
L 436.626714 121.066892 
L 431.691028 123.401298 
L 426.550297 125.24068 
L 421.25403 126.567327 
L 415.853231 127.368459 
L 410.399914 127.636364 
L 404.946596 127.368459 
L 399.545797 126.567327 
L 394.24953 125.24068 
L 389.108799 123.401298 
L 384.173113 121.066892 
L 379.490006 118.259946 
L 375.104578 115.007491 
L 371.059064 111.34085 
L 367.392423 107.295335 
L 364.139968 102.909908 
L 361.333021 98.2268 
L 358.998616 93.291115 
L 357.159233 88.150384 
L 355.832587 82.854116 
L 355.031454 77.453317 
L 354.76355 72 
L 355.031454 66.546683 
L 355.832587 61.145884 
L 357.159233 55.849616 
L 358.998616 50.708885 
L 361.333021 45.7732 
L 364.139968 41.090092 
L 367.392423 36.704665 
L 371.059064 32.65915 
L 375.104578 28.992509 
L 379.490006 25.740054 
L 384.173113 22.933108 
L 389.108799 20.598702 
L 394.24953 18.75932 
L 399.545797 17.432673 
L 404.946596 16.631541 
L 410.399914 16.363636 
L 415.853231 16.631541 
L 421.25403 17.432673 
L 426.550297 18.75932 
L 431.691028 20.598702 
L 436.626714 22.933108 
L 441.309821 25.740054 
L 445.695249 28.992509 
L 449.740764 32.65915 
L 453.407404 36.704665 
L 456.659859 41.090092 
L 459.466806 45.7732 
L 461.801211 50.708885 
L 463.640594 55.849616 
L 464.96724 61.145884 
L 465.768373 66.546683 
z
" clip-path="url(#p14ad2736b8)" style="fill: #1f77b4; opacity: 0.5"/>
   </g>
   <g id="patch_14">
    <path d="M 453.672641 72 
L 453.464271 76.241469 
L 452.841167 80.44209 
L 451.809332 84.56141 
L 450.378701 88.559756 
L 448.563052 92.398622 
L 446.379871 96.041039 
L 443.850184 99.451928 
L 440.998352 102.598439 
L 437.851841 105.450271 
L 434.440953 107.979958 
L 430.798536 110.163138 
L 426.959669 111.978787 
L 422.961323 113.409418 
L 418.842004 114.441254 
L 414.641382 115.064357 
L 410.399914 115.272727 
L 406.158445 115.064357 
L 401.957823 114.441254 
L 397.838504 113.409418 
L 393.840158 111.978787 
L 390.001291 110.163138 
L 386.358874 107.979958 
L 382.947986 105.450271 
L 379.801475 102.598439 
L 376.949643 99.451928 
L 374.419956 96.041039 
L 372.236775 92.398622 
L 370.421126 88.559756 
L 368.990495 84.56141 
L 367.95866 80.44209 
L 367.335556 76.241469 
L 367.127186 72 
L 367.335556 67.758531 
L 367.95866 63.55791 
L 368.990495 59.43859 
L 370.421126 55.440244 
L 372.236775 51.601378 
L 374.419956 47.958961 
L 376.949643 44.548072 
L 379.801475 41.401561 
L 382.947986 38.549729 
L 386.358874 36.020042 
L 390.001291 33.836862 
L 393.840158 32.021213 
L 397.838504 30.590582 
L 401.957823 29.558746 
L 406.158445 28.935643 
L 410.399914 28.727273 
L 414.641382 28.935643 
L 418.842004 29.558746 
L 422.961323 30.590582 
L 426.959669 32.021213 
L 430.798536 33.836862 
L 434.440953 36.020042 
L 437.851841 38.549729 
L 440.998352 41.401561 
L 443.850184 44.548072 
L 446.379871 47.958961 
L 448.563052 51.601378 
L 450.378701 55.440244 
L 451.809332 59.43859 
L 452.841167 63.55791 
L 453.464271 67.758531 
z
" clip-path="url(#p14ad2736b8)" style="fill: #ffffff; stroke: #ffffff; stroke-linejoin: miter"/>
   </g>
   <g id="patch_15">
    <path d="M 453.672641 72 
L 453.464271 76.241469 
L 452.841167 80.44209 
L 451.809332 84.56141 
L 450.378701 88.559756 
L 448.563052 92.398622 
L 446.379871 96.041039 
L 443.850184 99.451928 
L 440.998352 102.598439 
L 437.851841 105.450271 
L 434.440953 107.979958 
L 430.798536 110.163138 
L 426.959669 111.978787 
L 422.961323 113.409418 
L 418.842004 114.441254 
L 414.641382 115.064357 
L 410.399914 115.272727 
L 406.158445 115.064357 
L 401.957823 114.441254 
L 397.838504 113.409418 
L 393.840158 111.978787 
L 390.001291 110.163138 
L 386.358874 107.979958 
L 382.947986 105.450271 
L 379.801475 102.598439 
L 376.949643 99.451928 
L 374.419956 96.041039 
L 372.236775 92.398622 
L 370.421126 88.559756 
L 368.990495 84.56141 
L 367.95866 80.44209 
L 367.335556 76.241469 
L 367.127186 72 
L 367.335556 67.758531 
L 367.95866 63.55791 
L 368.990495 59.43859 
L 370.421126 55.440244 
L 372.236775 51.601378 
L 374.419956 47.958961 
L 376.949643 44.548072 
L 379.801475 41.401561 
L 382.947986 38.549729 
L 386.358874 36.020042 
L 390.001291 33.836862 
L 393.840158 32.021213 
L 397.838504 30.590582 
L 401.957823 29.558746 
L 406.158445 28.935643 
L 410.399914 28.727273 
L 414.641382 28.935643 
L 418.842004 29.558746 
L 422.961323 30.590582 
L 426.959669 32.021213 
L 430.798536 33.836862 
L 434.440953 36.020042 
L 437.851841 38.549729 
L 440.998352 41.401561 
L 443.850184 44.548072 
L 446.379871 47.958961 
L 448.563052 51.601378 
L 450.378701 55.440244 
L 451.809332 59.43859 
L 452.841167 63.55791 
L 453.464271 67.758531 
z
" clip-path="url(#p14ad2736b8)" style="fill: #ff7f0e; opacity: 0.5"/>
   </g>
   <g id="patch_16">
    <path d="M 441.309004 72 
L 441.160169 75.029621 
L 440.715095 78.030064 
L 439.978069 80.972435 
L 438.95619 83.828397 
L 437.659298 86.570445 
L 436.099883 89.172171 
L 434.292964 91.60852 
L 432.255941 93.856028 
L 430.008433 95.89305 
L 427.572084 97.69997 
L 424.970358 99.259385 
L 422.228311 100.556276 
L 419.372349 101.578156 
L 416.429978 102.315181 
L 413.429534 102.760255 
L 410.399914 102.909091 
L 407.370293 102.760255 
L 404.369849 102.315181 
L 401.427478 101.578156 
L 398.571517 100.556276 
L 395.829469 99.259385 
L 393.227743 97.69997 
L 390.791394 95.89305 
L 388.543886 93.856028 
L 386.506863 91.60852 
L 384.699944 89.172171 
L 383.140529 86.570445 
L 381.843637 83.828397 
L 380.821758 80.972435 
L 380.084732 78.030064 
L 379.639658 75.029621 
L 379.490823 72 
L 379.639658 68.970379 
L 380.084732 65.969936 
L 380.821758 63.027565 
L 381.843637 60.171603 
L 383.140529 57.429555 
L 384.699944 54.827829 
L 386.506863 52.39148 
L 388.543886 50.143972 
L 390.791394 48.10695 
L 393.227743 46.30003 
L 395.829469 44.740615 
L 398.571517 43.443724 
L 401.427478 42.421844 
L 404.369849 41.684819 
L 407.370293 41.239745 
L 410.399914 41.090909 
L 413.429534 41.239745 
L 416.429978 41.684819 
L 419.372349 42.421844 
L 422.228311 43.443724 
L 424.970358 44.740615 
L 427.572084 46.30003 
L 430.008433 48.10695 
L 432.255941 50.143972 
L 434.292964 52.39148 
L 436.099883 54.827829 
L 437.659298 57.429555 
L 438.95619 60.171603 
L 439.978069 63.027565 
L 440.715095 65.969936 
L 441.160169 68.970379 
z
" clip-path="url(#p14ad2736b8)" style="fill: #ffffff; stroke: #ffffff; stroke-linejoin: miter"/>
   </g>
   <g id="patch_17">
    <path d="M 441.309004 72 
L 441.160169 75.029621 
L 440.715095 78.030064 
L 439.978069 80.972435 
L 438.95619 83.828397 
L 437.659298 86.570445 
L 436.099883 89.172171 
L 434.292964 91.60852 
L 432.255941 93.856028 
L 430.008433 95.89305 
L 427.572084 97.69997 
L 424.970358 99.259385 
L 422.228311 100.556276 
L 419.372349 101.578156 
L 416.429978 102.315181 
L 413.429534 102.760255 
L 410.399914 102.909091 
L 407.370293 102.760255 
L 404.369849 102.315181 
L 401.427478 101.578156 
L 398.571517 100.556276 
L 395.829469 99.259385 
L 393.227743 97.69997 
L 390.791394 95.89305 
L 388.543886 93.856028 
L 386.506863 91.60852 
L 384.699944 89.172171 
L 383.140529 86.570445 
L 381.843637 83.828397 
L 380.821758 80.972435 
L 380.084732 78.030064 
L 379.639658 75.029621 
L 379.490823 72 
L 379.639658 68.970379 
L 380.084732 65.969936 
L 380.821758 63.027565 
L 381.843637 60.171603 
L 383.140529 57.429555 
L 384.699944 54.827829 
L 386.506863 52.39148 
L 388.543886 50.143972 
L 390.791394 48.10695 
L 393.227743 46.30003 
L 395.829469 44.740615 
L 398.571517 43.443724 
L 401.427478 42.421844 
L 404.369849 41.684819 
L 407.370293 41.239745 
L 410.399914 41.090909 
L 413.429534 41.239745 
L 416.429978 41.684819 
L 419.372349 42.421844 
L 422.228311 43.443724 
L 424.970358 44.740615 
L 427.572084 46.30003 
L 430.008433 48.10695 
L 432.255941 50.143972 
L 434.292964 52.39148 
L 436.099883 54.827829 
L 437.659298 57.429555 
L 438.95619 60.171603 
L 439.978069 63.027565 
L 440.715095 65.969936 
L 441.160169 68.970379 
z
" clip-path="url(#p14ad2736b8)" style="fill: #2ca02c; opacity: 0.5"/>
   </g>
   <g id="patch_18">
    <path d="M 428.945368 72 
L 428.856067 73.817772 
L 428.589022 75.618039 
L 428.146807 77.383461 
L 427.533679 79.097038 
L 426.755544 80.742267 
L 425.819895 82.303303 
L 424.735744 83.765112 
L 423.51353 85.113617 
L 422.165025 86.33583 
L 420.703216 87.419982 
L 419.14218 88.355631 
L 417.496952 89.133766 
L 415.783375 89.746893 
L 414.017952 90.189109 
L 412.217686 90.456153 
L 410.399914 90.545455 
L 408.582141 90.456153 
L 406.781875 90.189109 
L 405.016452 89.746893 
L 403.302875 89.133766 
L 401.657647 88.355631 
L 400.096611 87.419982 
L 398.634802 86.33583 
L 397.286297 85.113617 
L 396.064083 83.765112 
L 394.979932 82.303303 
L 394.044283 80.742267 
L 393.266148 79.097038 
L 392.65302 77.383461 
L 392.210805 75.618039 
L 391.94376 73.817772 
L 391.854459 72 
L 391.94376 70.182228 
L 392.210805 68.381961 
L 392.65302 66.616539 
L 393.266148 64.902962 
L 394.044283 63.257733 
L 394.979932 61.696697 
L 396.064083 60.234888 
L 397.286297 58.886383 
L 398.634802 57.66417 
L 400.096611 56.580018 
L 401.657647 55.644369 
L 403.302875 54.866234 
L 405.016452 54.253107 
L 406.781875 53.810891 
L 408.582141 53.543847 
L 410.399914 53.454545 
L 412.217686 53.543847 
L 414.017952 53.810891 
L 415.783375 54.253107 
L 417.496952 54.866234 
L 419.14218 55.644369 
L 420.703216 56.580018 
L 422.165025 57.66417 
L 423.51353 58.886383 
L 424.735744 60.234888 
L 425.819895 61.696697 
L 426.755544 63.257733 
L 427.533679 64.902962 
L 428.146807 66.616539 
L 428.589022 68.381961 
L 428.856067 70.182228 
z
" clip-path="url(#p14ad2736b8)" style="fill: #ffffff; stroke: #ffffff; stroke-linejoin: miter"/>
   </g>
   <g id="patch_19">
    <path d="M 428.945368 72 
L 428.856067 73.817772 
L 428.589022 75.618039 
L 428.146807 77.383461 
L 427.533679 79.097038 
L 426.755544 80.742267 
L 425.819895 82.303303 
L 424.735744 83.765112 
L 423.51353 85.113617 
L 422.165025 86.33583 
L 420.703216 87.419982 
L 419.14218 88.355631 
L 417.496952 89.133766 
L 415.783375 89.746893 
L 414.017952 90.189109 
L 412.217686 90.456153 
L 410.399914 90.545455 
L 408.582141 90.456153 
L 406.781875 90.189109 
L 405.016452 89.746893 
L 403.302875 89.133766 
L 401.657647 88.355631 
L 400.096611 87.419982 
L 398.634802 86.33583 
L 397.286297 85.113617 
L 396.064083 83.765112 
L 394.979932 82.303303 
L 394.044283 80.742267 
L 393.266148 79.097038 
L 392.65302 77.383461 
L 392.210805 75.618039 
L 391.94376 73.817772 
L 391.854459 72 
L 391.94376 70.182228 
L 392.210805 68.381961 
L 392.65302 66.616539 
L 393.266148 64.902962 
L 394.044283 63.257733 
L 394.979932 61.696697 
L 396.064083 60.234888 
L 397.286297 58.886383 
L 398.634802 57.66417 
L 400.096611 56.580018 
L 401.657647 55.644369 
L 403.302875 54.866234 
L 405.016452 54.253107 
L 406.781875 53.810891 
L 408.582141 53.543847 
L 410.399914 53.454545 
L 412.217686 53.543847 
L 414.017952 53.810891 
L 415.783375 54.253107 
L 417.496952 54.866234 
L 419.14218 55.644369 
L 420.703216 56.580018 
L 422.165025 57.66417 
L 423.51353 58.886383 
L 424.735744 60.234888 
L 425.819895 61.696697 
L 426.755544 63.257733 
L 427.533679 64.902962 
L 428.146807 66.616539 
L 428.589022 68.381961 
L 428.856067 70.182228 
z
" clip-path="url(#p14ad2736b8)" style="fill: #d62728; opacity: 0.5"/>
   </g>
   <g id="patch_20">
    <path d="M 416.581732 72 
L 416.551965 72.605924 
L 416.46295 73.206013 
L 416.315545 73.794487 
L 416.111169 74.365679 
L 415.85179 74.914089 
L 415.539907 75.434434 
L 415.178524 75.921704 
L 414.771119 76.371206 
L 414.321617 76.77861 
L 413.834348 77.139994 
L 413.314002 77.451877 
L 412.765593 77.711255 
L 412.194401 77.915631 
L 411.605926 78.063036 
L 411.005838 78.152051 
L 410.399914 78.181818 
L 409.793989 78.152051 
L 409.193901 78.063036 
L 408.605426 77.915631 
L 408.034234 77.711255 
L 407.485825 77.451877 
L 406.965479 77.139994 
L 406.47821 76.77861 
L 406.028708 76.371206 
L 405.621303 75.921704 
L 405.25992 75.434434 
L 404.948037 74.914089 
L 404.688658 74.365679 
L 404.484282 73.794487 
L 404.336877 73.206013 
L 404.247862 72.605924 
L 404.218095 72 
L 404.247862 71.394076 
L 404.336877 70.793987 
L 404.484282 70.205513 
L 404.688658 69.634321 
L 404.948037 69.085911 
L 405.25992 68.565566 
L 405.621303 68.078296 
L 406.028708 67.628794 
L 406.47821 67.22139 
L 406.965479 66.860006 
L 407.485825 66.548123 
L 408.034234 66.288745 
L 408.605426 66.084369 
L 409.193901 65.936964 
L 409.793989 65.847949 
L 410.399914 65.818182 
L 411.005838 65.847949 
L 411.605926 65.936964 
L 412.194401 66.084369 
L 412.765593 66.288745 
L 413.314002 66.548123 
L 413.834348 66.860006 
L 414.321617 67.22139 
L 414.771119 67.628794 
L 415.178524 68.078296 
L 415.539907 68.565566 
L 415.85179 69.085911 
L 416.111169 69.634321 
L 416.315545 70.205513 
L 416.46295 70.793987 
L 416.551965 71.394076 
z
" clip-path="url(#p14ad2736b8)" style="fill: #ffffff; stroke: #ffffff; stroke-linejoin: miter"/>
   </g>
   <g id="patch_21">
    <path d="M 416.581732 72 
L 416.551965 72.605924 
L 416.46295 73.206013 
L 416.315545 73.794487 
L 416.111169 74.365679 
L 415.85179 74.914089 
L 415.539907 75.434434 
L 415.178524 75.921704 
L 414.771119 76.371206 
L 414.321617 76.77861 
L 413.834348 77.139994 
L 413.314002 77.451877 
L 412.765593 77.711255 
L 412.194401 77.915631 
L 411.605926 78.063036 
L 411.005838 78.152051 
L 410.399914 78.181818 
L 409.793989 78.152051 
L 409.193901 78.063036 
L 408.605426 77.915631 
L 408.034234 77.711255 
L 407.485825 77.451877 
L 406.965479 77.139994 
L 406.47821 76.77861 
L 406.028708 76.371206 
L 405.621303 75.921704 
L 405.25992 75.434434 
L 404.948037 74.914089 
L 404.688658 74.365679 
L 404.484282 73.794487 
L 404.336877 73.206013 
L 404.247862 72.605924 
L 404.218095 72 
L 404.247862 71.394076 
L 404.336877 70.793987 
L 404.484282 70.205513 
L 404.688658 69.634321 
L 404.948037 69.085911 
L 405.25992 68.565566 
L 405.621303 68.078296 
L 406.028708 67.628794 
L 406.47821 67.22139 
L 406.965479 66.860006 
L 407.485825 66.548123 
L 408.034234 66.288745 
L 408.605426 66.084369 
L 409.193901 65.936964 
L 409.793989 65.847949 
L 410.399914 65.818182 
L 411.005838 65.847949 
L 411.605926 65.936964 
L 412.194401 66.084369 
L 412.765593 66.288745 
L 413.314002 66.548123 
L 413.834348 66.860006 
L 414.321617 67.22139 
L 414.771119 67.628794 
L 415.178524 68.078296 
L 415.539907 68.565566 
L 415.85179 69.085911 
L 416.111169 69.634321 
L 416.315545 70.205513 
L 416.46295 70.793987 
L 416.551965 71.394076 
z
" clip-path="url(#p14ad2736b8)" style="fill: #9467bd; opacity: 0.5"/>
   </g>
   <g id="line2d_2">
    <path d="M 466.036277 72 
L 465.768373 77.453317 
L 464.96724 82.854116 
L 463.640594 88.150384 
L 461.801211 93.291115 
L 459.466806 98.2268 
L 456.659859 102.909908 
L 453.407404 107.295335 
L 449.740764 111.34085 
L 445.695249 115.007491 
L 441.309821 118.259946 
L 436.626714 121.066892 
L 431.691028 123.401298 
L 426.550297 125.24068 
L 421.25403 126.567327 
L 415.853231 127.368459 
L 410.399914 127.636364 
L 404.946596 127.368459 
L 399.545797 126.567327 
L 394.24953 125.24068 
L 389.108799 123.401298 
L 384.173113 121.066892 
L 379.490006 118.259946 
L 375.104578 115.007491 
L 371.059064 111.34085 
L 367.392423 107.295335 
L 364.139968 102.909908 
L 361.333021 98.2268 
L 358.998616 93.291115 
L 357.159233 88.150384 
L 355.832587 82.854116 
L 355.031454 77.453317 
L 354.76355 72 
L 355.031454 66.546683 
L 355.832587 61.145884 
L 357.159233 55.849616 
L 358.998616 50.708885 
L 361.333021 45.7732 
L 364.139968 41.090092 
L 367.392423 36.704665 
L 371.059064 32.65915 
L 375.104578 28.992509 
L 379.490006 25.740054 
L 384.173113 22.933108 
L 389.108799 20.598702 
L 394.24953 18.75932 
L 399.545797 17.432673 
L 404.946596 16.631541 
L 410.399914 16.363636 
L 415.853231 16.631541 
L 421.25403 17.432673 
L 426.550297 18.75932 
L 431.691028 20.598702 
L 436.626714 22.933108 
L 441.309821 25.740054 
L 445.695249 28.992509 
L 449.740764 32.65915 
L 453.407404 36.704665 
L 456.659859 41.090092 
L 459.466806 45.7732 
L 461.801211 50.708885 
L 463.640594 55.849616 
L 464.96724 61.145884 
L 465.768373 66.546683 
L 466.036277 72 
" clip-path="url(#p14ad2736b8)" style="fill: none; stroke: #000000; stroke-width: 1.5; stroke-linecap: square"/>
   </g>
  </g>
 </g>
 <defs>
  <clipPath id="p93e150b60d">
   <rect x="25.678671" y="10.8" width="191.042888" height="122.4"/>
  </clipPath>
  <clipPath id="pd795d806bd">
   <rect x="251.892299" y="10.8" width="55.41546" height="122.4"/>
  </clipPath>
  <clipPath id="p14ad2736b8">
   <rect x="349.199914" y="10.8" width="122.4" height="122.4"/>
  </clipPath>
 </defs>
</svg>
